<?xml version="1.0" encoding="iso-8859-1"?>
<!-- Uploaded to: SVG Repo, www.svgrepo.com, Generator: SVG Repo Mixer Tools -->
<svg fill="#000000" version="1.1" id="Layer_1" xmlns="http://www.w3.org/2000/svg" xmlns:xlink="http://www.w3.org/1999/xlink" 
	 viewBox="0 0 491.52 491.52" xml:space="preserve">
<g>
	<g>
		<g>
			<rect x="184.326" y="266.24" width="122.88" height="102.4"/>
			<path d="M491.356,163c-0.102-2.335-0.492-4.669-1.393-6.881c-0.041-0.102-0.041-0.205-0.082-0.307
				c-0.021-0.02-0.021-0.02-0.021-0.041l-61.44-143.36C425.206,4.874,417.792,0,409.6,0H81.92c-8.192,0-15.606,4.874-18.821,12.411
				l-61.44,143.36c0,0.021,0,0.021-0.021,0.041c-0.041,0.102-0.041,0.205-0.082,0.307c-0.901,2.212-1.29,4.547-1.393,6.881
				c0,0.307-0.164,0.553-0.164,0.84v307.2c0,11.305,9.175,20.48,20.48,20.48h450.56c11.305,0,20.48-9.175,20.48-20.48v-307.2
				C491.52,163.553,491.356,163.308,491.356,163z M348.16,389.12c0,11.305-9.175,20.48-20.48,20.48H163.84
				c-11.305,0-20.48-9.175-20.48-20.48V245.76c0-11.305,9.175-20.48,20.48-20.48h163.84c11.305,0,20.48,9.175,20.48,20.48V389.12z
				 M51.548,143.36l43.868-102.4h300.687l43.868,102.4H51.548z"/>
		</g>
	</g>
</g>
</svg>